<svg width="203" height="177" viewBox="0 0 203 177" fill="none" xmlns="http://www.w3.org/2000/svg">
    <path d="M42.5037 58.2405L46.581 66.4724L53.6957 80.856L57.3615 88.2729L59.7796 93.1567L61.0949 95.8345C61.2436 96.0996 61.388 96.3863 61.546 96.6488C61.6322 96.7883 61.6948 96.9139 61.7877 97.0414C61.8763 97.1904 61.9742 97.3369 62.0906 97.4783C62.5106 98.0972 62.962 98.6462 63.4709 99.1488C63.5916 99.2686 63.7124 99.3884 63.8516 99.5031C64.2373 99.8765 64.6527 100.211 65.1026 100.526C68.001 102.605 71.7369 103.363 75.3441 102.371L130.632 87.2183C136.279 85.6654 140.126 80.2624 139.818 74.2477L138.774 53.5744L138.612 50.4058L138.26 43.5363L138.177 42.0393L138.142 41.2943L137.684 32.1586L42.5037 58.2405ZM83.9007 87.5232C84.589 90.1593 83.0684 92.8622 80.4998 93.5685C77.9313 94.2748 75.2976 92.7143 74.6093 90.0782L69.1232 69.0658C68.4374 66.4392 69.9555 63.7268 72.5241 63.0205C75.0927 62.3142 77.7288 63.8842 78.4146 66.5107L83.9007 87.5232ZM104.635 81.8215C104.712 82.1165 104.768 82.4071 104.784 82.6984C104.976 85.0324 103.515 87.2395 101.234 87.8668C99.8524 88.2468 98.4365 87.9629 97.3343 87.2052C96.3924 86.5667 95.6615 85.5947 95.3435 84.3766L89.8573 63.3641C89.1716 60.7375 90.6897 58.0252 93.2583 57.3188C95.8268 56.6125 98.463 58.1825 99.1488 60.8091L104.635 81.8215ZM125.369 76.1199C126.057 78.7559 124.537 81.4588 121.968 82.1652C119.4 82.8715 116.766 81.311 116.078 78.6749L110.592 57.6624C109.906 55.0359 111.424 52.3235 113.992 51.6172C116.561 50.9108 119.197 52.4808 119.883 55.1074L125.369 76.1199Z" fill="url(#paint0_linear_142_9153)"/>
    <path d="M137.685 32.1584L138.142 41.2941L46.5815 66.4722L42.5066 58.2498L137.685 32.1584Z" fill="#418B00"/>
    <path d="M128.324 34.6154L130.165 3.00017" stroke="url(#paint1_linear_142_9153)" stroke-width="4.252" stroke-miterlimit="10" stroke-linecap="round"/>
    <path d="M54.7437 54.8217L37.8987 28.3997" stroke="url(#paint2_linear_142_9153)" stroke-width="4.252" stroke-miterlimit="10" stroke-linecap="round"/>
    <path d="M140.169 35.433L41.9695 62.4368C38.3809 63.4237 34.7008 61.2431 33.7393 57.5602C32.7777 53.8773 34.9024 50.1005 38.491 49.1137L136.691 22.1098C140.28 21.123 143.96 23.3036 144.921 26.9864C145.883 30.6693 143.749 34.4487 140.169 35.433Z" fill="url(#paint3_linear_142_9153)"/>
    <path d="M128.861 108.564C132.968 107.434 135.405 103.102 134.305 98.8866C133.204 94.6715 128.983 92.17 124.875 93.2994C120.768 94.4289 118.331 98.7616 119.431 102.977C120.532 107.192 124.753 109.693 128.861 108.564Z" fill="url(#paint4_linear_142_9153)"/>
    <path d="M92.9573 113.896C93.7962 109.618 91.0969 105.451 86.9282 104.591C82.7595 103.73 78.7001 106.5 77.8612 110.778C77.0223 115.056 79.7217 119.222 83.8903 120.083C88.059 120.944 92.1184 118.174 92.9573 113.896Z" fill="url(#paint5_linear_142_9153)"/>
    <path d="M32.1614 162.866C32.3587 164.05 31.7274 164.642 30.504 164.642H27.6628C26.4789 164.642 25.9659 164.05 25.8081 162.866L24.4664 151.62L19.7704 163.024C19.2574 164.208 18.4287 164.839 17.2448 164.839H16.8502C15.6664 164.839 14.8377 164.208 14.3247 163.024L9.6287 151.58L8.287 162.866C8.16861 164.05 7.65561 164.642 6.47175 164.642H3.15695C1.93363 164.642 1.30224 164.05 1.46009 162.866L4.9722 140.57C5.13005 139.426 5.87982 138.795 7.06368 138.795H7.4583C8.64215 138.795 9.31301 139.426 9.82601 140.57L17.0475 156.079L23.8744 140.57C24.3874 139.426 25.0978 138.795 26.2422 138.795H26.6762C27.8206 138.795 28.5704 139.426 28.7677 140.57L32.1614 162.866ZM41.7004 156.237C42.0161 158.881 44.226 160.301 46.8305 160.301C48.2511 160.301 49.6323 159.867 51.0529 158.881C51.7632 158.328 52.3551 158.052 53.1049 158.841L54.4466 160.222C55.3148 161.051 54.9991 161.722 54.5255 162.235C52.7497 164.129 49.1587 165.155 46.0412 165.155C39.7273 165.155 35.1103 160.893 35.1103 154.737C35.1103 148.778 39.53 144.398 45.7255 144.398C48.8825 144.398 51.487 145.503 53.1838 147.2C54.9991 149.015 56.0645 151.62 56.0645 154.343C56.0645 155.724 55.7094 156.237 54.2493 156.237H41.7004ZM45.5677 149.094C43.4762 149.094 42.0161 150.396 41.7399 152.488H49.4349C49.2771 151.541 48.8825 150.752 48.33 150.199C47.6197 149.489 46.7121 149.094 45.5677 149.094ZM73.8585 144.832C74.5293 145.069 75.1607 145.385 74.845 146.529L74.0952 149.489C73.7795 150.594 73.1087 150.83 72.4378 150.554C71.8064 150.357 71.0567 150.16 70.3858 150.16C68.0576 150.16 66.7948 151.699 66.7948 154.027V162.827C66.7948 163.971 66.1634 164.642 65.019 164.642H61.7437C60.5993 164.642 59.9679 163.971 59.9679 162.827V146.529C59.9679 145.385 60.5993 144.714 61.7437 144.714H63.8351C64.9795 144.714 65.6109 145.385 65.6109 146.529V147.476C66.9921 145.543 68.8468 144.398 71.0172 144.398C72.0827 144.398 73.0298 144.556 73.8585 144.832ZM86.8365 165.155C80.641 165.155 76.0634 160.775 76.0634 154.777C76.0634 148.778 80.641 144.398 86.8365 144.398C90.1907 144.398 92.7558 145.621 94.6499 147.476C95.1629 148.029 95.4786 148.66 94.6105 149.528L92.519 151.62C91.9665 152.133 91.3746 152.369 90.467 151.541C89.4804 150.633 88.2966 150.239 87.1127 150.239C84.5872 150.239 82.8114 152.172 82.8114 154.777C82.8114 157.381 84.5477 159.354 87.1127 159.354C88.2966 159.354 89.4804 158.92 90.467 158.012C91.3746 157.184 91.9665 157.421 92.519 157.934L94.6105 160.025C95.4786 160.893 95.1629 161.525 94.6499 162.077C92.7558 163.932 90.1907 165.155 86.8365 165.155ZM107.367 144.398C112.141 144.398 116.798 146.49 116.798 152.843V162.827C116.798 164.011 116.167 164.642 114.983 164.642H113.365C112.22 164.642 111.589 163.971 111.589 162.827V162.669C109.932 164.169 107.722 165.155 105.275 165.155C100.579 165.155 97.5011 162.63 97.5011 158.881C97.5011 154.816 100.855 152.133 105.985 152.133C107.524 152.133 109.063 152.488 110.484 152.961V152.251C110.484 150.396 109.182 149.291 106.893 149.291C104.959 149.291 103.42 149.883 102.473 150.436C101.605 150.909 100.737 150.83 100.184 149.725L99.7504 148.818C99.0795 147.555 99.3952 146.845 100.224 146.332C102.158 145.108 104.999 144.398 107.367 144.398ZM107.011 160.933C109.142 160.933 110.642 159.591 110.642 158.525V156.908C109.892 156.552 108.511 156.039 107.09 156.039C105.157 156.039 103.894 157.065 103.894 158.525C103.894 159.986 105.117 160.933 107.011 160.933ZM136.666 161.959C137.1 162.906 136.39 163.379 135.877 163.774C134.653 164.642 132.799 165.155 130.865 165.155C126.919 165.155 123.131 162.906 123.131 157.499V149.686H121.394C120.21 149.686 119.579 149.015 119.579 147.871V146.529C119.579 145.345 120.21 144.714 121.394 144.714H123.131V140.136C123.131 138.992 123.801 138.558 124.946 138.321L128.103 137.769C129.287 137.532 129.918 138.36 129.918 139.544V144.714H133.825C134.969 144.714 135.64 145.345 135.64 146.529V147.871C135.64 149.015 134.969 149.686 133.825 149.686H129.918V156.789C129.918 158.723 130.905 159.354 132.128 159.354C132.72 159.354 133.312 159.078 133.746 158.802C134.732 158.17 135.206 158.644 135.561 159.394L136.666 161.959ZM144.972 156.237C145.288 158.881 147.497 160.301 150.102 160.301C151.523 160.301 152.904 159.867 154.324 158.881C155.035 158.328 155.627 158.052 156.376 158.841L157.718 160.222C158.586 161.051 158.271 161.722 157.797 162.235C156.021 164.129 152.43 165.155 149.313 165.155C142.999 165.155 138.382 160.893 138.382 154.737C138.382 148.778 142.801 144.398 148.997 144.398C152.154 144.398 154.758 145.503 156.455 147.2C158.271 149.015 159.336 151.62 159.336 154.343C159.336 155.724 158.981 156.237 157.521 156.237H144.972ZM148.839 149.094C146.748 149.094 145.288 150.396 145.011 152.488H152.706C152.549 151.541 152.154 150.752 151.601 150.199C150.891 149.489 149.984 149.094 148.839 149.094ZM177.13 144.832C177.801 145.069 178.432 145.385 178.116 146.529L177.367 149.489C177.051 150.594 176.38 150.83 175.709 150.554C175.078 150.357 174.328 150.16 173.657 150.16C171.329 150.16 170.066 151.699 170.066 154.027V162.827C170.066 163.971 169.435 164.642 168.29 164.642H165.015C163.871 164.642 163.239 163.971 163.239 162.827V146.529C163.239 145.385 163.871 144.714 165.015 144.714H167.107C168.251 144.714 168.882 145.385 168.882 146.529V147.476C170.264 145.543 172.118 144.398 174.289 144.398C175.354 144.398 176.301 144.556 177.13 144.832ZM190.345 165.155C183.952 165.155 179.335 160.735 179.335 154.777C179.335 148.818 183.952 144.398 190.345 144.398C196.738 144.398 201.355 148.818 201.355 154.777C201.355 160.735 196.738 165.155 190.345 165.155ZM190.345 159.315C192.831 159.315 194.607 157.381 194.607 154.777C194.607 152.172 192.831 150.239 190.345 150.239C187.859 150.239 186.043 152.172 186.043 154.777C186.043 157.381 187.859 159.315 190.345 159.315Z" fill="#09051C"/>
    <defs>
        <linearGradient id="paint0_linear_142_9153" x1="41.6395" y1="54.9306" x2="141.954" y2="35.0579" gradientUnits="userSpaceOnUse">
            <stop offset="0.0139783" stop-color="#AEDC81"/>
            <stop offset="1" stop-color="#6CC51D"/>
        </linearGradient>
        <linearGradient id="paint1_linear_142_9153" x1="120.327" y1="3.6608" x2="130.098" y2="1.24127" gradientUnits="userSpaceOnUse">
            <stop offset="0.0139783" stop-color="#AEDC81"/>
            <stop offset="1" stop-color="#6CC51D"/>
        </linearGradient>
        <linearGradient id="paint2_linear_142_9153" x1="37.3989" y1="26.465" x2="47.1796" y2="24.0432" gradientUnits="userSpaceOnUse">
            <stop offset="0.0139783" stop-color="#AEDC81"/>
            <stop offset="1" stop-color="#6CC51D"/>
        </linearGradient>
        <linearGradient id="paint3_linear_142_9153" x1="31.7681" y1="50.0105" x2="147.311" y2="49.8995" gradientUnits="userSpaceOnUse">
            <stop offset="0.0139783" stop-color="#AEDC81"/>
            <stop offset="1" stop-color="#6CC51D"/>
        </linearGradient>
        <linearGradient id="paint4_linear_142_9153" x1="117.173" y1="94.3269" x2="132.781" y2="90.7555" gradientUnits="userSpaceOnUse">
            <stop offset="0.0139783" stop-color="#AEDC81"/>
            <stop offset="1" stop-color="#6CC51D"/>
        </linearGradient>
        <linearGradient id="paint5_linear_142_9153" x1="75.3359" y1="118.317" x2="79.1606" y2="102.381" gradientUnits="userSpaceOnUse">
            <stop offset="0.0139783" stop-color="#AEDC81"/>
            <stop offset="1" stop-color="#6CC51D"/>
        </linearGradient>
    </defs>
</svg>
